<svg width="363" height="264" viewBox="0 0 363 264" fill="none" xmlns="http://www.w3.org/2000/svg">
<path d="M4.08909 61.3053C3.95315 61.5225 0.962524 74.9385 0.962524 75.3187C0.962524 75.373 10.7772 75.4545 22.7941 75.4817L44.5985 75.5632L57.1047 103.943C63.9832 119.559 73.3357 140.824 77.9032 151.198C89.5666 177.731 87.9625 175.151 109.577 202.2L126.107 222.895L190.677 222.84L255.247 222.759L257.232 216.648C258.347 213.281 259.244 210.456 259.244 210.321C259.244 210.212 230.534 210.131 195.435 210.103H131.598L120.37 195.954C114.226 188.16 109.223 181.751 109.278 181.669C109.413 181.533 112.486 181.37 159.33 178.899C167.867 178.437 177.029 177.948 179.72 177.813C182.412 177.65 193.803 177.052 205.005 176.455C259.244 173.576 267.047 173.169 271.342 172.924C273.898 172.788 276.318 172.653 276.725 172.653C277.487 172.653 277.976 171.675 296.11 135.256L314.733 97.8598L314.679 95.2255L314.652 92.5912L313.374 90.6629C312.151 88.7619 312.096 88.7347 309.541 87.6484L306.958 86.5621H195.435C134.073 86.5621 83.8844 86.6164 83.8844 86.6979C83.8844 86.7794 84.8903 89.6038 86.0866 92.9442L88.2888 99.0547H194.565C253.018 99.0547 300.841 99.109 300.841 99.1905C300.841 99.272 299.454 102.069 297.796 105.437L294.723 111.547H291.597C281.592 111.575 96.3363 113.937 96.2547 114.046C96.0916 114.209 100.36 125.968 100.659 126.213C100.768 126.294 140.217 125.86 188.284 125.235C236.352 124.583 278.601 124.067 282.136 124.067L288.579 124.04L285.534 130.151C282.679 135.908 282.462 136.261 281.673 136.37C281.238 136.451 265.633 136.94 247.009 137.483C228.386 138.026 191.139 139.113 164.223 139.927C137.308 140.742 114.226 141.421 112.921 141.421C111.072 141.421 110.528 141.503 110.528 141.801C110.528 142.29 114.579 153.452 114.878 153.751C115.096 153.968 127.276 153.615 235.319 150.112C257.667 149.405 275.991 148.835 276.046 148.889C276.127 148.971 269.385 160.73 269.086 161.029C268.759 161.355 101.774 170.263 101.502 169.991C101.284 169.774 98.1035 162.659 86.6032 136.668C78.9907 119.505 75.4291 111.466 67.1641 92.8084C62.4335 82.1354 57.3222 70.6204 55.8269 67.1985L53.081 61.0337H28.6666C12.49 61.0337 4.19784 61.1152 4.08909 61.3053Z" fill="white"/>
<path d="M131.408 233.921C126.623 235.061 122.327 239.081 120.832 243.779C120.152 245.87 120.044 250.025 120.56 251.954C121.593 255.593 124.72 259.612 127.847 261.269C129.641 262.219 133.039 263.088 134.997 263.088C137.09 263.088 140.434 262.192 142.31 261.133C145.41 259.368 148.183 255.837 149.243 252.252C149.814 250.297 149.814 246.251 149.243 244.322C148.101 240.493 145.247 236.935 141.903 235.17C138.83 233.568 134.807 233.079 131.408 233.921Z" fill="white"/>
<path d="M243.747 233.785C243.067 233.921 241.545 234.491 240.348 235.089C230.969 239.733 229.283 252.117 237.059 259.232C246.466 267.787 261.718 261.024 261.691 248.287C261.691 244.159 260.25 240.737 257.341 237.832C253.806 234.301 248.804 232.807 243.747 233.785Z" fill="white"/>
<circle cx="337" cy="26" r="26" fill="#FFA500"/>
<path d="M328.74 31.446V27.926H325.572V25.836H328.74V22.404H331.116V25.836H334.306V27.926H331.116V31.446H328.74ZM341.238 36V21.81C341.076 21.898 340.893 21.986 340.688 22.074C340.482 22.162 340.262 22.2573 340.028 22.36C339.808 22.448 339.588 22.536 339.368 22.624C339.162 22.712 338.972 22.8 338.796 22.888V20.16C338.957 20.072 339.184 19.9547 339.478 19.808C339.771 19.6467 340.086 19.4707 340.424 19.28C340.761 19.0893 341.076 18.8987 341.37 18.708C341.663 18.5027 341.883 18.3267 342.03 18.18H344.912V36H341.238Z" fill="white"/>
</svg>
