<svg width="217" height="244" viewBox="0 0 217 244" fill="none" xmlns="http://www.w3.org/2000/svg">
<path d="M103.674 243.806C103.826 243.782 104.289 243.709 104.704 243.655C109.715 242.986 114.968 239.527 120.103 233.526C124.679 228.163 129.303 220.553 133.471 211.527C135.157 207.863 136.975 203.47 138.095 200.361C138.35 199.65 138.585 199.036 138.62 198.999C138.654 198.957 138.641 198.861 138.585 198.758C138.53 198.662 138.24 198.071 137.936 197.439C136.761 195.01 135.033 191.895 133.685 189.786C130.582 184.918 127.216 180.905 123.338 177.434C122.702 176.873 122.073 176.271 121.935 176.102C121.652 175.753 121.037 175.277 120.214 174.765C119.91 174.578 119.129 174.06 118.472 173.62C117.145 172.716 114.754 171.306 113.454 170.655C108.692 168.269 103.184 166.775 99.1472 166.769C97.91 166.769 97.827 166.781 96.5207 167.022C93.8804 167.51 92.4497 167.877 90.3693 168.588C89.063 169.034 86.7337 170.016 85.462 170.655C84.4252 171.173 82.4416 172.312 81.5223 172.903C81.1629 173.138 80.4787 173.559 80.0018 173.837C78.2946 174.843 77.244 175.626 76.9122 176.132C76.8085 176.283 76.2141 176.873 75.5852 177.434C69.7655 182.634 64.8375 189.407 60.8909 197.62C60.6352 198.15 60.3863 198.662 60.331 198.758C60.2758 198.861 60.2619 198.957 60.2965 198.999C60.331 199.036 60.5799 199.692 60.8563 200.452C63.3445 207.345 67.0008 215.268 70.5742 221.511C74.9286 229.109 79.117 234.526 83.6027 238.353C87.7774 241.914 91.7724 243.673 96.0645 243.848C96.7972 243.878 97.1151 243.854 98.4905 243.637C99.3199 243.504 99.6102 243.51 100.937 243.703C102.078 243.866 103.094 243.908 103.674 243.806Z" fill="white"/>
<mask id="path-2-inside-1_291_42" fill="white">
<path d="M200.926 108.5C200.926 131.059 193.333 152.962 179.37 170.681C165.407 188.4 145.887 200.904 123.952 206.178C102.018 211.453 78.9474 209.192 58.4549 199.758C37.9624 190.325 21.2412 174.27 10.9843 154.177C0.727369 134.084 -2.46832 111.124 1.9119 88.9937C6.29211 66.8636 17.9933 46.8519 35.1309 32.1813C52.2686 17.5107 73.8452 9.03523 96.386 8.11974C118.927 7.20426 141.12 13.9021 159.391 27.1346L100.463 108.5H200.926Z"/>
</mask>
<path d="M200.926 108.5C200.926 131.059 193.333 152.962 179.37 170.681C165.407 188.4 145.887 200.904 123.952 206.178C102.018 211.453 78.9474 209.192 58.4549 199.758C37.9624 190.325 21.2412 174.27 10.9843 154.177C0.727369 134.084 -2.46832 111.124 1.9119 88.9937C6.29211 66.8636 17.9933 46.8519 35.1309 32.1813C52.2686 17.5107 73.8452 9.03523 96.386 8.11974C118.927 7.20426 141.12 13.9021 159.391 27.1346L100.463 108.5H200.926Z" fill="white" stroke="white" stroke-width="2" mask="url(#path-2-inside-1_291_42)"/>
<mask id="path-3-inside-2_291_42" fill="white">
<path d="M217 100.463C217 84.5832 213.236 68.9296 206.016 54.7861C198.796 40.6426 188.326 28.412 175.465 19.0976L116.537 100.463H217Z"/>
</mask>
<path d="M217 100.463C217 84.5832 213.236 68.9296 206.016 54.7861C198.796 40.6426 188.326 28.412 175.465 19.0976L116.537 100.463H217Z" fill="white" stroke="white" stroke-width="2" mask="url(#path-3-inside-2_291_42)"/>
<path d="M103.426 241.283C103.57 241.261 104.005 241.193 104.396 241.142C109.112 240.512 114.056 237.257 118.889 231.608C123.196 226.561 127.548 219.398 131.47 210.903C133.057 207.455 134.768 203.321 135.822 200.394C136.063 199.725 136.284 199.147 136.316 199.113C136.349 199.073 136.336 198.982 136.284 198.886C136.232 198.795 135.959 198.239 135.672 197.644C134.567 195.358 132.94 192.426 131.672 190.442C128.751 185.859 125.583 182.082 121.934 178.816C121.335 178.288 120.743 177.721 120.613 177.562C120.346 177.233 119.767 176.785 118.993 176.303C118.707 176.128 117.972 175.64 117.354 175.226C116.105 174.375 113.854 173.048 112.631 172.436C108.149 170.19 102.965 168.783 99.1656 168.778C98.0012 168.778 97.9232 168.789 96.6937 169.016C94.2087 169.475 92.8622 169.821 90.9041 170.49C89.6746 170.91 87.4824 171.835 86.2855 172.436C85.3097 172.923 83.4427 173.995 82.5776 174.551C82.2393 174.772 81.5953 175.169 81.1464 175.43C79.5397 176.377 78.5509 177.114 78.2386 177.591C78.1411 177.732 77.5816 178.288 76.9896 178.816C71.5123 183.71 66.8742 190.084 63.1597 197.814C62.919 198.313 62.6849 198.795 62.6328 198.886C62.5808 198.982 62.5678 199.073 62.6003 199.113C62.6328 199.147 62.867 199.765 63.1272 200.479C65.4691 206.967 68.9103 214.425 72.2734 220.3C76.3717 227.451 80.3138 232.55 84.5356 236.151C88.4647 239.503 92.2247 241.159 96.2643 241.323C96.9539 241.351 97.2531 241.329 98.5476 241.124C99.3283 241 99.6015 241.005 100.85 241.187C101.924 241.34 102.88 241.38 103.426 241.283Z" fill="black"/>
<g filter="url(#filter0_d_291_42)">
<path d="M85.0457 114.591C80.7054 115.044 76.3651 116.746 71.6651 119.868C69.0362 121.607 66.68 123.443 61.6948 127.631C56.412 132.063 53.9567 133.875 50.72 135.675C46.9874 137.769 44.2096 138.895 40.9481 139.654C39.708 139.936 39.2244 139.985 37.6991 139.985C36.1614 139.985 35.7894 139.948 35.1693 139.716C34.0656 139.311 33.4704 138.92 32.7015 138.099C31.4987 136.826 30.8414 135.038 30.829 133.079C30.8166 131.659 31.1142 130.9 31.9575 130.129C32.9372 129.247 33.8796 128.904 37.4511 128.145C39.088 127.802 39.9189 127.459 40.5017 126.872C41.283 126.1 41.0101 125.684 39.212 124.937C37.2527 124.129 35.5537 123.896 33.7308 124.19C30.1594 124.766 27.3568 126.566 25.0626 129.724C21.9128 134.083 21.2555 138.932 23.1901 143.389C26.8483 151.8 40.6257 157.347 59.9711 158.192C70.115 158.632 82.9003 156.918 89.4604 154.249C91.8538 153.282 93.1435 152.51 96.0577 150.319C97.0002 149.609 98.9471 148.654 99.8896 148.445C100.931 148.201 102.271 148.164 102.667 148.372C102.829 148.458 103.436 148.874 104.031 149.303C114.027 156.514 135.393 159.918 153.895 157.249C162.13 156.061 169 153.686 173.737 150.368C175.2 149.351 177.432 147.16 178.3 145.911C181.239 141.662 181.587 137.181 179.317 132.712C178.127 130.373 176.105 127.961 173.997 126.394C172.794 125.488 170.575 124.374 169.459 124.092C167.053 123.492 164.957 123.896 163.419 125.243C162.775 125.806 162.08 126.761 162.08 127.104C162.08 127.594 163.692 128.096 167.363 128.782C169.421 129.161 170.339 129.504 171.108 130.19C172.348 131.304 172.584 133.3 171.678 135.075C171.306 135.785 169.893 137.279 168.69 138.234C166.11 140.254 163.147 140.695 159.662 139.544C158.459 139.152 156.252 138.05 154.999 137.218C153.523 136.238 148.625 132.565 142.487 127.827C139.858 125.794 136.832 123.517 135.765 122.758C129.404 118.289 124.22 115.889 118.863 114.946C117.474 114.701 116.854 114.664 114.399 114.664C112.228 114.664 111.261 114.713 110.368 114.885C107.516 115.399 104.776 116.281 102.196 117.493C100.311 118.387 100.138 118.387 98.4635 117.493C95.9461 116.158 92.6599 115.069 90.1301 114.726C88.7164 114.53 86.2734 114.469 85.0457 114.591Z" fill="black"/>
</g>
<defs>
<filter id="filter0_d_291_42" x="18.1019" y="112.528" width="166.694" height="51.7327" filterUnits="userSpaceOnUse" color-interpolation-filters="sRGB">
<feFlood flood-opacity="0" result="BackgroundImageFix"/>
<feColorMatrix in="SourceAlpha" type="matrix" values="0 0 0 0 0 0 0 0 0 0 0 0 0 0 0 0 0 0 127 0" result="hardAlpha"/>
<feOffset dy="2"/>
<feGaussianBlur stdDeviation="2"/>
<feComposite in2="hardAlpha" operator="out"/>
<feColorMatrix type="matrix" values="0 0 0 0 0 0 0 0 0 0 0 0 0 0 0 0 0 0 0.25 0"/>
<feBlend mode="normal" in2="BackgroundImageFix" result="effect1_dropShadow_291_42"/>
<feBlend mode="normal" in="SourceGraphic" in2="effect1_dropShadow_291_42" result="shape"/>
</filter>
</defs>
</svg>
