<svg width="498" height="498" viewBox="0 0 498 498" fill="none" xmlns="http://www.w3.org/2000/svg">
<circle cx="249" cy="249" r="249" fill="#3A2E1E"/>
<circle cx="249" cy="249" r="221" fill="#D4A76A"/>
<ellipse cx="320" cy="201.312" rx="124" ry="123.247" fill="#7B3C1D"/>
<ellipse cx="220" cy="169.247" rx="124" ry="123.247" fill="#6A3219"/>
<ellipse cx="354.5" cy="214.338" rx="68.5" ry="68.1368" fill="#6A3219"/>
<ellipse cx="102.5" cy="287.485" rx="62.5" ry="62.1247" fill="#7B3C1D"/>
<ellipse cx="175" cy="349.109" rx="79" ry="78.658" fill="#7B3C1D"/>
<ellipse cx="223" cy="427.767" rx="27" ry="27.0543" fill="#6A3219"/>
<ellipse cx="276" cy="451.815" rx="12" ry="12.0241" fill="#7B3C1D"/>
<ellipse cx="322" cy="56.0201" rx="10" ry="10.0201" fill="#5A2A15"/>
<ellipse cx="160.5" cy="292.495" rx="50.5" ry="50.1006" fill="#6A3219"/>
<ellipse cx="66.5" cy="200.811" rx="26.5" ry="26.5533" fill="#5A2A15"/>
<ellipse cx="227.5" cy="147.704" rx="36.5" ry="36.5734" fill="#5A2A15"/>
<ellipse cx="185.5" cy="258.928" rx="16.5" ry="16.5332" fill="#5A2A15"/>
<ellipse cx="286.5" cy="340.592" rx="95.5" ry="95.1911" fill="#6A3219"/>
<ellipse cx="363.5" cy="282.475" rx="99.5" ry="99.1992" fill="#5A2A15"/>
</svg>
